<?xml version="1.0" encoding="UTF-8" standalone="no"?><!DOCTYPE svg PUBLIC "-//W3C//DTD SVG 1.1//EN" "http://www.w3.org/Graphics/SVG/1.1/DTD/svg11.dtd"><!-- Generated by graphviz version 2.40.1 (20161225.0304)
 --><!-- Title: G Pages: 1 --><svg xmlns="http://www.w3.org/2000/svg" xmlns:xlink="http://www.w3.org/1999/xlink" width="255pt" height="264pt" viewBox="0.00 0.00 254.50 264.00">
<g id="graph0" class="graph" transform="scale(1 1) rotate(0) translate(4 260)">
<title>G</title>
<polygon fill="#ffffff" stroke="transparent" points="-4,4 -4,-260 250.5,-260 250.5,4 -4,4"/>
<!-- node0 -->
<g id="node1" class="node">
<title>node0</title>
<polygon fill="none" stroke="#000000" points="99,-219.5 99,-255.5 161,-255.5 161,-219.5 99,-219.5"/>
<text text-anchor="middle" x="108.75" y="-233.3" font-family="Times,serif" font-size="14.00" fill="#000000"> </text>
<polyline fill="none" stroke="#000000" points="118.5,-219.5 118.5,-255.5 "/>
<text text-anchor="middle" x="130" y="-233.3" font-family="Times,serif" font-size="14.00" fill="#000000">7</text>
<polyline fill="none" stroke="#000000" points="141.5,-219.5 141.5,-255.5 "/>
<text text-anchor="middle" x="151.25" y="-233.3" font-family="Times,serif" font-size="14.00" fill="#000000"> </text>
</g>
<!-- node3 -->
<g id="node4" class="node">
<title>node3</title>
<polygon fill="none" stroke="#000000" points="59,-146.5 59,-182.5 121,-182.5 121,-146.5 59,-146.5"/>
<text text-anchor="middle" x="68.75" y="-160.3" font-family="Times,serif" font-size="14.00" fill="#000000"> </text>
<polyline fill="none" stroke="#000000" points="78.5,-146.5 78.5,-182.5 "/>
<text text-anchor="middle" x="90" y="-160.3" font-family="Times,serif" font-size="14.00" fill="#000000">3</text>
<polyline fill="none" stroke="#000000" points="101.5,-146.5 101.5,-182.5 "/>
<text text-anchor="middle" x="111.25" y="-160.3" font-family="Times,serif" font-size="14.00" fill="#000000"> </text>
</g>
<!-- node0&#45;&gt;node3 -->
<g id="edge1" class="edge">
<title>node0:f0-&gt;node3:f1</title>
<path fill="none" stroke="#000000" d="M109,-219.5C109,-205.0579 97.4033,-201.8815 92.3298,-192.3681"/>
<polygon fill="#000000" stroke="#000000" points="95.7042,-191.4282 90,-182.5 88.8915,-193.0367 95.7042,-191.4282"/>
</g>
<!-- node4 -->
<g id="node5" class="node">
<title>node4</title>
<polygon fill="none" stroke="#000000" points="139,-146.5 139,-182.5 201,-182.5 201,-146.5 139,-146.5"/>
<text text-anchor="middle" x="148.75" y="-160.3" font-family="Times,serif" font-size="14.00" fill="#000000"> </text>
<polyline fill="none" stroke="#000000" points="158.5,-146.5 158.5,-182.5 "/>
<text text-anchor="middle" x="170" y="-160.3" font-family="Times,serif" font-size="14.00" fill="#000000">8</text>
<polyline fill="none" stroke="#000000" points="181.5,-146.5 181.5,-182.5 "/>
<text text-anchor="middle" x="191.25" y="-160.3" font-family="Times,serif" font-size="14.00" fill="#000000"> </text>
</g>
<!-- node0&#45;&gt;node4 -->
<g id="edge4" class="edge">
<title>node0:f2-&gt;node4:f1</title>
<path fill="none" stroke="#000000" d="M151,-219.5C151,-205.0579 162.5967,-201.8815 167.6702,-192.3681"/>
<polygon fill="#000000" stroke="#000000" points="171.1085,-193.0367 170,-182.5 164.2958,-191.4282 171.1085,-193.0367"/>
</g>
<!-- node1 -->
<g id="node2" class="node">
<title>node1</title>
<polygon fill="none" stroke="#000000" points="0,-73.5 0,-109.5 62,-109.5 62,-73.5 0,-73.5"/>
<text text-anchor="middle" x="9.75" y="-87.3" font-family="Times,serif" font-size="14.00" fill="#000000"> </text>
<polyline fill="none" stroke="#000000" points="19.5,-73.5 19.5,-109.5 "/>
<text text-anchor="middle" x="31" y="-87.3" font-family="Times,serif" font-size="14.00" fill="#000000">1</text>
<polyline fill="none" stroke="#000000" points="42.5,-73.5 42.5,-109.5 "/>
<text text-anchor="middle" x="52.25" y="-87.3" font-family="Times,serif" font-size="14.00" fill="#000000"> </text>
</g>
<!-- node2 -->
<g id="node3" class="node">
<title>node2</title>
<polygon fill="none" stroke="#000000" points="80,-73.5 80,-109.5 142,-109.5 142,-73.5 80,-73.5"/>
<text text-anchor="middle" x="89.75" y="-87.3" font-family="Times,serif" font-size="14.00" fill="#000000"> </text>
<polyline fill="none" stroke="#000000" points="99.5,-73.5 99.5,-109.5 "/>
<text text-anchor="middle" x="111" y="-87.3" font-family="Times,serif" font-size="14.00" fill="#000000">2</text>
<polyline fill="none" stroke="#000000" points="122.5,-73.5 122.5,-109.5 "/>
<text text-anchor="middle" x="132.25" y="-87.3" font-family="Times,serif" font-size="14.00" fill="#000000"> </text>
</g>
<!-- node3&#45;&gt;node1 -->
<g id="edge2" class="edge">
<title>node3:f0-&gt;node1:f1</title>
<path fill="none" stroke="#000000" d="M69,-146.5C69,-127.1633 43.4293,-130.5152 34.2399,-119.3323"/>
<polygon fill="#000000" stroke="#000000" points="37.4539,-117.9023 31,-109.5 30.8055,-120.0931 37.4539,-117.9023"/>
</g>
<!-- node3&#45;&gt;node2 -->
<g id="edge3" class="edge">
<title>node3:f2-&gt;node2:f1</title>
<path fill="none" stroke="#000000" d="M111,-146.5C111,-134.0382 111,-128.6592 111,-119.6281"/>
<polygon fill="#000000" stroke="#000000" points="114.5001,-119.5 111,-109.5 107.5001,-119.5 114.5001,-119.5"/>
</g>
<!-- node5 -->
<g id="node6" class="node">
<title>node5</title>
<polygon fill="none" stroke="#000000" points="160,-73.5 160,-109.5 222,-109.5 222,-73.5 160,-73.5"/>
<text text-anchor="middle" x="169.75" y="-87.3" font-family="Times,serif" font-size="14.00" fill="#000000"> </text>
<polyline fill="none" stroke="#000000" points="179.5,-73.5 179.5,-109.5 "/>
<text text-anchor="middle" x="191" y="-87.3" font-family="Times,serif" font-size="14.00" fill="#000000">9</text>
<polyline fill="none" stroke="#000000" points="202.5,-73.5 202.5,-109.5 "/>
<text text-anchor="middle" x="212.25" y="-87.3" font-family="Times,serif" font-size="14.00" fill="#000000"> </text>
</g>
<!-- node4&#45;&gt;node5 -->
<g id="edge5" class="edge">
<title>node4:f2-&gt;node5:f1</title>
<path fill="none" stroke="#000000" d="M191,-146.5C191,-134.0382 191,-128.6592 191,-119.6281"/>
<polygon fill="#000000" stroke="#000000" points="194.5001,-119.5 191,-109.5 187.5001,-119.5 194.5001,-119.5"/>
</g>
<!-- node6 -->
<g id="node7" class="node">
<title>node6</title>
<polygon fill="none" stroke="#000000" points="177.5,-.5 177.5,-36.5 246.5,-36.5 246.5,-.5 177.5,-.5"/>
<text text-anchor="middle" x="187.25" y="-14.3" font-family="Times,serif" font-size="14.00" fill="#000000"> </text>
<polyline fill="none" stroke="#000000" points="197,-.5 197,-36.5 "/>
<text text-anchor="middle" x="212" y="-14.3" font-family="Times,serif" font-size="14.00" fill="#000000">10</text>
<polyline fill="none" stroke="#000000" points="227,-.5 227,-36.5 "/>
<text text-anchor="middle" x="236.75" y="-14.3" font-family="Times,serif" font-size="14.00" fill="#000000"> </text>
</g>
<!-- node5&#45;&gt;node6 -->
<g id="edge6" class="edge">
<title>node5:f2-&gt;node6:f1</title>
<path fill="none" stroke="#000000" d="M212,-73.5C212,-61.0382 212,-55.6592 212,-46.6281"/>
<polygon fill="#000000" stroke="#000000" points="215.5001,-46.5 212,-36.5 208.5001,-46.5 215.5001,-46.5"/>
</g>
</g>
</svg>